Coordinates
version=1
nRows=5
nColumns=40
inDegrees=yes

Units are S.I. units (second, meters, Newtons, ...)
Angles are in degrees.

endheader
time	pelvis_tilt	pelvis_list	pelvis_rotation	pelvis_tx	pelvis_ty	pelvis_tz	hip_flexion_r	hip_adduction_r	hip_rotation_r	knee_angle_r	knee_angle_r_beta	ankle_angle_r	subtalar_angle_r	mtp_angle_r	hip_flexion_l	hip_adduction_l	hip_rotation_l	knee_angle_l	knee_angle_l_beta	ankle_angle_l	subtalar_angle_l	mtp_angle_l	lumbar_extension	lumbar_bending	lumbar_rotation	arm_flex_r	arm_add_r	arm_rot_r	elbow_flex_r	pro_sup_r	wrist_flex_r	wrist_dev_r	arm_flex_l	arm_add_l	arm_rot_l	elbow_flex_l	pro_sup_l	wrist_flex_l	wrist_dev_l
     31.17000000	     -5.05082069	     -4.07067354	    -10.68372103	      0.83201473	      0.92607496	      0.38503045	     24.60965488	     -4.61355644	     -6.61935769	     21.23240112	     21.23240112	      6.32260866	      5.37138257	      2.44660399	     10.23640055	     -2.01705751	    -14.08511791	     21.56045812	     21.56045812	     18.92695105	     -9.86235440	      0.79279820	     -9.16682376	      5.15169371	      0.81460201	    -21.02037545	    -13.70711171	     -1.30250639	     32.09573564	     45.82373361	      0.00000000	      0.00000000	     34.66681894	    -20.60363981	     -8.09594591	     68.77853518	     47.82347312	      0.00000000	      0.00000000
     31.19385714	     -5.25038537	     -3.92813309	    -10.98107158	      0.83061045	      0.92582207	      0.38726735	     24.34284204	     -4.36013923	     -6.50272385	     19.23658175	     19.23658175	      5.62423459	      6.90404411	      3.30747865	      9.92547848	     -1.98479528	    -14.43424509	     21.07031239	     21.07031239	     18.88288544	     -9.67001729	      0.52468809	     -8.99825337	      5.06956959	      0.78384450	    -21.47055831	    -13.58073976	     -1.24813721	     32.15085135	     45.81453213	      0.00000000	      0.00000000	     35.19877639	    -20.68086806	     -8.69418068	     69.62173128	     47.88173096	      0.00000000	      0.00000000
     31.21771429	     -5.36613687	     -3.76230378	    -11.21154961	      0.82938205	      0.92549618	      0.38966635	     24.04408502	     -4.23212813	     -6.52903678	     17.66922382	     17.66922382	      5.06986318	      8.40511435	      3.97610678	      9.55915310	     -1.93310841	    -14.77216523	     20.66201514	     20.66201514	     18.86649895	     -9.39565595	      0.14120023	     -8.96081053	      4.92803963	      0.80448695	    -21.56823585	    -13.44383748	     -1.19136259	     32.25429973	     45.80641549	      0.00000000	      0.00000000	     35.67386603	    -20.58672404	     -9.41694141	     70.58984505	     47.94935917	      0.00000000	      0.00000000
     31.24157143	     -5.63151760	     -3.47331566	    -11.37072938	      0.82808315	      0.92472019	      0.39221992	     24.14882852	     -4.21527191	     -6.31119064	     16.76347114	     16.76347114	      4.54092705	      9.03468565	      4.31321237	      9.53158131	     -1.80365638	    -14.99324338	     20.52180652	     20.52180652	     18.96417123	     -9.33780008	      0.00230274	     -8.69842460	      4.69030752	      0.81094880	    -21.31356829	    -13.30823535	     -1.16245607	     32.37366437	     45.80175134	      0.00000000	      0.00000000	     36.25531942	    -20.64767491	     -9.64621751	     71.01597381	     47.97596919	      0.00000000	      0.00000000
     31.26542857	     -5.77524697	     -3.35579738	    -11.38820867	      0.82721962	      0.92435085	      0.39488119	     23.78599786	     -4.10563921	     -6.41867076	     15.62952862	     15.62952862	      3.92700448	      9.76578488	      4.63025506	      9.26836200	     -1.82333875	    -15.10293475	     20.27947805	     20.27947805	     19.05425364	     -9.12539131	     -0.17421588	     -8.61614469	      4.65894866	      0.82567650	    -20.94802765	    -13.21040637	     -1.12517114	     32.47427896	     45.79852220	      0.00000000	      0.00000000	     36.51623181	    -20.33561695	     -9.93813400	     71.55883737	     48.00592584	      0.00000000	      0.00000000
